<svg width='200' height='200' fill="#000000" xmlns="http://www.w3.org/2000/svg" xmlns:xlink="http://www.w3.org/1999/xlink" version="1.1" x="0px" y="0px" viewBox="0 0 100 100" enable-background="new 0 0 100 100" xml:space="preserve"><path d="M21.043,47.362l-10,15l1.914,1.275l10-15L21.043,47.362z M24,69c-1.104,0-2,0.896-2,2s0.896,2,2,2s2-0.896,2-2  S25.104,69,24,69z M76,43c1.104,0,2-0.896,2-2s-0.896-2-2-2s-2,0.896-2,2S74.896,43,76,43z M18.043,62.362l1.914,1.275l10-15  l-1.914-1.275L18.043,62.362z M24,43c1.104,0,2-0.896,2-2s-0.896-2-2-2s-2,0.896-2,2S22.896,43,24,43z M83,35v-1H17v1  c0,3.735-1.169,10-9,10H7v22h1c7.831,0,9,6.265,9,10v1h66v-1c0-3.735,1.169-10,9-10h1V47h-1C85.816,47,83,40.78,83,35z M91,65.033  c-5.985,0.398-9.641,4.414-9.975,10.967H18.975C18.641,69.447,14.985,65.431,9,65.033V46.967c5.985-0.398,9.641-4.414,9.975-10.967  h62.051c0.309,6.134,3.467,12.376,9.975,12.956V65.033z M93,30H7c-2.206,0-4,1.794-4,4v44c0,2.206,1.794,4,4,4h86  c2.206,0,4-1.794,4-4V34C97,31.794,95.206,30,93,30z M95,78c0,1.103-0.897,2-2,2H7c-1.103,0-2-0.897-2-2V34c0-1.103,0.897-2,2-2h86  c1.103,0,2,0.897,2,2V78z M79,47.85c-4.494,0-8.15,3.656-8.15,8.15s3.656,8.15,8.15,8.15s8.15-3.656,8.15-8.15  S83.494,47.85,79,47.85z M79,61.85c-3.226,0-5.85-2.625-5.85-5.85s2.624-5.85,5.85-5.85s5.85,2.625,5.85,5.85S82.226,61.85,79,61.85  z M55.354,42.684c-1.654-0.664-3.461-1.031-5.354-1.031c-7.32,0-13.36,5.482-14.238,12.565c-0.072,0.585-0.11,1.18-0.11,1.783  c0,7.925,6.425,14.347,14.349,14.347c7.926,0,14.349-6.422,14.349-14.347C64.349,49.969,60.628,44.805,55.354,42.684z   M54.317,51.762c-0.249,0.366-0.746,0.461-1.111,0.213c-0.309-0.209-0.642-0.385-0.989-0.521c-0.599-0.236-1.234-0.356-1.888-0.356  c-2.778,0-5.038,2.2-5.038,4.903c0,2.704,2.26,4.904,5.038,4.904h0.002c0.835,0,1.629-0.192,2.36-0.571  c0.393-0.203,0.876-0.049,1.078,0.343c0.203,0.393,0.05,0.875-0.342,1.078c-0.711,0.368-1.49,0.605-2.289,0.702v1.298  c0,0.441-0.358,0.801-0.801,0.801c-0.441,0-0.8-0.359-0.8-0.801v-1.3C46.25,62.069,43.69,59.324,43.69,56  c0-3.323,2.56-6.068,5.848-6.453v-1.3c0-0.442,0.358-0.8,0.8-0.8c0.442,0,0.801,0.357,0.801,0.8v1.304  c0.57,0.067,1.129,0.202,1.666,0.414c0.457,0.18,0.895,0.41,1.3,0.686C54.47,50.898,54.565,51.396,54.317,51.762z M76,69  c-1.104,0-2,0.896-2,2s0.896,2,2,2s2-0.896,2-2S77.104,69,76,69z M13.5,26h73c0.828,0,1.5-0.448,1.5-1s-0.672-1-1.5-1h-73  c-0.828,0-1.5,0.448-1.5,1S12.672,26,13.5,26z M18,20h64c0.828,0,1.5-0.448,1.5-1s-0.672-1-1.5-1H18c-0.828,0-1.5,0.448-1.5,1  S17.172,20,18,20z"/></svg>